<mxfile host="app.diagrams.net" modified="2024-01-06T09:27:32.189Z" agent="Mozilla/5.0 (Windows NT 10.0; Win64; x64) AppleWebKit/537.36 (KHTML, like Gecko) Chrome/120.0.0.0 Safari/537.36" etag="jvCv0R2jdLEDbs7IBsX4" version="22.1.17" type="github">
  <diagram name="Page-1" id="5d7acffa-a066-3a61-03fe-96351882024d">
    <mxGraphModel dx="1195" dy="756" grid="1" gridSize="10" guides="1" tooltips="1" connect="1" arrows="1" fold="1" page="1" pageScale="1" pageWidth="1100" pageHeight="850" background="#ffffff" math="0" shadow="0">
      <root>
        <mxCell id="0" />
        <mxCell id="1" parent="0" />
        <mxCell id="npJGMGMSL7v2pL3vcZeN-20" style="edgeStyle=orthogonalEdgeStyle;rounded=0;orthogonalLoop=1;jettySize=auto;html=1;exitX=1;exitY=0.5;exitDx=0;exitDy=0;entryX=0;entryY=0.5;entryDx=0;entryDy=0;strokeColor=#23445D;" edge="1" parent="1" source="21ea969265ad0168-6" target="npJGMGMSL7v2pL3vcZeN-16">
          <mxGeometry relative="1" as="geometry" />
        </mxCell>
        <mxCell id="21ea969265ad0168-6" value="cluster text from comments" style="swimlane;html=1;fontStyle=0;childLayout=stackLayout;horizontal=1;startSize=30;fillColor=#e0e0e0;horizontalStack=0;resizeParent=1;resizeLast=0;collapsible=1;marginBottom=0;swimlaneFillColor=#ffffff;align=center;rounded=1;shadow=0;comic=0;labelBackgroundColor=none;strokeWidth=1;fontFamily=Verdana;fontSize=12" parent="1" vertex="1">
          <mxGeometry x="30" y="240" width="440" height="354" as="geometry">
            <mxRectangle x="30" y="240" width="300" height="30" as="alternateBounds" />
          </mxGeometry>
        </mxCell>
        <mxCell id="npJGMGMSL7v2pL3vcZeN-25" value="í ¼í¾¯ Key Takeaways for quick navigation:&#xa;&#xa;&#xa;00:28 í ½í³š Micro Quiz Introduction&#xa;- Micro quizzes introduced as unannounced short quizzes on material.&#xa;- Micro quizzes, a small component of the grade, aim for consistent participation.&#xa;- Throwable microphone introduced for easy question interaction.&#xa;03:18 í ¼í¾® Fun with Ruby&#xa;- Brief introduction to Ruby programming language.&#xa;- Highlights the unconventional behaviors in Ruby.&#xa;- Demonstrates quirks in Ruby, such as the handling of undefined variables and the flexibility of method calls.&#xa;08:05 í ¾í·¬ Ruby and JavaScript Oddities&#xa;- Comparison of Ruby and JavaScript language quirks.&#xa;- Illustrates peculiar behaviors in JavaScript, such as array concatenation and object addition.&#xa;- Emphasizes that every language has its oddities.&#xa;13:29 í ½í³œ Ruby Basics: Variables and Classes&#xa;- Introduction to basic Ruby concepts: variables and classes.&#xa;- Explains the absence of variable declarations in Ruby.&#xa;- Highlights the significance of every element being a method call in Ruby." style="text;whiteSpace=wrap;fillColor=#fff2cc;strokeColor=#d6b656;" vertex="1" parent="21ea969265ad0168-6">
          <mxGeometry y="30" width="440" height="324" as="geometry" />
        </mxCell>
        <mxCell id="npJGMGMSL7v2pL3vcZeN-22" style="edgeStyle=orthogonalEdgeStyle;rounded=0;orthogonalLoop=1;jettySize=auto;html=1;exitX=1;exitY=0.5;exitDx=0;exitDy=0;entryX=0;entryY=0.5;entryDx=0;entryDy=0;strokeColor=#23445D;" edge="1" parent="1" source="npJGMGMSL7v2pL3vcZeN-2" target="npJGMGMSL7v2pL3vcZeN-21">
          <mxGeometry relative="1" as="geometry" />
        </mxCell>
        <mxCell id="npJGMGMSL7v2pL3vcZeN-2" value="{{transcript}} from harapa node" style="swimlane;html=1;fontStyle=0;childLayout=stackLayout;horizontal=1;startSize=30;fillColor=#e0e0e0;horizontalStack=0;resizeParent=1;resizeLast=0;collapsible=1;marginBottom=0;swimlaneFillColor=#ffffff;align=center;rounded=1;shadow=0;comic=0;labelBackgroundColor=none;strokeWidth=1;fontFamily=Verdana;fontSize=12" vertex="1" collapsed="1" parent="1">
          <mxGeometry x="30" y="620" width="300" height="30" as="geometry">
            <mxRectangle x="30" y="620" width="440" height="570" as="alternateBounds" />
          </mxGeometry>
        </mxCell>
        <mxCell id="npJGMGMSL7v2pL3vcZeN-28" value="[00:28] for all right so uh let&#39;s get started so uh little bit dwindling lecture attendance so that will probably change because Thursday there will be a micro quiz uh they will not always be announced but we&#39;ll try to announce them um just so&#xa;[00:50] people aren&#39;t like too surprised um but sort of short one question on material so far it should only take you a minute or two to answer&#xa;[01:02] but so don&#39;t stress about it and as a reminder micro quizzes are uh you know like they are a very small component of your grade so if you answer you know a reasonable portion of them correctly&#xa;[01:17] throughout the semester uh then you&#39;ll get full credits for that we don&#39;t expect you to get every single one right we you know are okay if you miss a lecture or two um but you know they should be there for dependence and tracking so the other&#xa;[01:31] thing that we&#39;re going to try um and if this ends up working out you can tell your other professors that it might be fun to try uh but this is a throwable microphone uh so if you have a question uh we can kind of just pass it around uh&#xa;[01:46] but the top here is a mic so if you just sort of speak into it it&#39;ll uh record your voice um and then the thing that&#39;s useful for that is on a webcast people can hear a question uh so if you want to say something insulting on the webcast you no longer have that option um but&#xa;[02:02] otherwise you know you can pass it around and if someone has a question you can just toss it to them it&#39;s very squishy and very light uh so uh it&#39;s easy to uh pass around but I&#39;m just going to hand this to Jeremy so uh you&#xa;[02:16] know he&#39;ll have that and then when someone has a question you can pass it around uh it also Auto mutes uh while you toss it so that&#39;s kind of fun um and as far as some other colleagues I&#39;ve heard no one has died yet by being hit&#xa;[02:28] by one so um you know progress um but yeah so let&#39;s get started today we&#39;re going to start off with um that should actually say Ruby and rest not Sona we will be doing um also actually take that back we will not be using these slides&#xa;[02:43] because those are those are the start of Thursday slides uh hey where did my slides go oh well I didn&#39;t do that right okay so aside from the fact that I&#xa;[03:18] misum of the slides uh we&#39;re going to start off today with some Ruby and this is a fun video uh that hopefully cooperates it is about 5 minutes long um don&#39;t worry about the actual Ruby in this video but just as a reminder of how&#xa;[03:33] fun and odd programming languages are we&#39;re going to play this all right good you guys know what w means w exactly" style="text;whiteSpace=wrap;fillColor=#fff2cc;strokeColor=#d6b656;" vertex="1" parent="npJGMGMSL7v2pL3vcZeN-2">
          <mxGeometry y="30" width="440" height="540" as="geometry" />
        </mxCell>
        <mxCell id="npJGMGMSL7v2pL3vcZeN-29" style="edgeStyle=orthogonalEdgeStyle;rounded=0;orthogonalLoop=1;jettySize=auto;html=1;exitX=0.5;exitY=1;exitDx=0;exitDy=0;strokeColor=#23445D;" edge="1" parent="npJGMGMSL7v2pL3vcZeN-2" source="npJGMGMSL7v2pL3vcZeN-28" target="npJGMGMSL7v2pL3vcZeN-28">
          <mxGeometry relative="1" as="geometry" />
        </mxCell>
        <mxCell id="npJGMGMSL7v2pL3vcZeN-14" value="" style="group" vertex="1" connectable="0" parent="1">
          <mxGeometry x="950" y="210" width="260" height="560" as="geometry" />
        </mxCell>
        <mxCell id="npJGMGMSL7v2pL3vcZeN-11" value="Harapa custom command" style="rounded=0;whiteSpace=wrap;html=1;fillColor=#ffe6cc;strokeColor=#d79b00;" vertex="1" parent="npJGMGMSL7v2pL3vcZeN-14">
          <mxGeometry width="260" height="60" as="geometry" />
        </mxCell>
        <mxCell id="npJGMGMSL7v2pL3vcZeN-13" value="" style="rounded=0;whiteSpace=wrap;html=1;fillColor=#fff2cc;strokeColor=#d6b656;" vertex="1" parent="npJGMGMSL7v2pL3vcZeN-14">
          <mxGeometry y="60" width="260" height="500" as="geometry" />
        </mxCell>
        <mxCell id="npJGMGMSL7v2pL3vcZeN-6" value="Clear" style="rounded=1;whiteSpace=wrap;html=1;strokeColor=#FFFFFF;fontColor=#FFFFFF;fillColor=#182E3E;" vertex="1" parent="npJGMGMSL7v2pL3vcZeN-14">
          <mxGeometry x="64.47209302325581" y="90" width="131.06418604651162" height="60" as="geometry" />
        </mxCell>
        <mxCell id="npJGMGMSL7v2pL3vcZeN-7" value="Say: Working on Transcript:-" style="rounded=1;whiteSpace=wrap;html=1;strokeColor=#FFFFFF;fontColor=#FFFFFF;fillColor=#182E3E;" vertex="1" parent="npJGMGMSL7v2pL3vcZeN-14">
          <mxGeometry x="64.47209302325581" y="180" width="131.06418604651162" height="70" as="geometry" />
        </mxCell>
        <mxCell id="npJGMGMSL7v2pL3vcZeN-9" style="edgeStyle=orthogonalEdgeStyle;rounded=0;orthogonalLoop=1;jettySize=auto;html=1;entryX=0.5;entryY=0;entryDx=0;entryDy=0;strokeColor=#23445D;" edge="1" parent="npJGMGMSL7v2pL3vcZeN-14" source="npJGMGMSL7v2pL3vcZeN-6" target="npJGMGMSL7v2pL3vcZeN-7">
          <mxGeometry relative="1" as="geometry" />
        </mxCell>
        <mxCell id="npJGMGMSL7v2pL3vcZeN-15" value="" style="shape=image;verticalLabelPosition=bottom;labelBackgroundColor=default;verticalAlign=top;aspect=fixed;imageAspect=0;image=data:image/png,iVBORw0KGgoAAAANSUhEUgAABMYAAABnCAYAAADrAk6UAAAgAElEQVR4Ae2d3bMV1Zn//TO2Ihz1aEAIyDvBQHjRQNSTKGoMSYgTCeiYISYxEwqPmhyNwalwHBkzVIjk5BdCOYGTKOQXmJ8DhYOkPJji3KRqaubCXOVyquYid6mai+dX67Wf9azVvXvv3ful9/5SRfU+3b3WetbzfNbbd6/ufUOj0SD8hw/AQL0YWLZsGdot+i4w0AYDaDv16uvqMDaBKTBVB05hIzitggH0d+CoCo6QBzgaRAZuGESjYBMaCxgoZgATk2L/gB/4J48BtB2wkcdGu+fBFJhqlx2kAzt1YwD9HZitG7OwF8yWZQDCWBs7Dso6F/ehIXaLAUxMwFa32Br2fNF20HaqZhxMgamqmUJ+YGpQGUB/BzYHlU3YBTY7ZQDCGIQxPI5VQwYwMUHn32nnP6rp0XbQdqpmH0yBqaqZQn5galAZQH8HNgeVTdgFNjtlAMJYDUWRToOO9PXvODAxqX8M0Q77E0O0nf74fZh5B1Ngapj5Rt3AN2cA/R144DzgM3gYJgYgjEEYw46xGjKAiQkGomEaiHpZF7QdtJ2qeQNTYKpqppAfmBpUBtDfgc1BZRN2gc1OGYAwVkNRpNOgI339Ow5MTOofQ7TD/sQQbac/fh9m3sEUmBpmvlE38M0ZQH8HHjgP+AwehokBCGMQxrBjrIYMYGKCgWiYBqJe1gVtB22nat7AFJiqminkB6YGlQH0d2BzUNmEXWCzUwYgjNVQFOk06Ehf/44DE5P6xxDtsD8xRNvpj9+HmXcwBaaGmW/UDXxzBtDfgQfOAz6Dh2Fi4AbVweE/fAAGwAAYAANgAAyAATAABsAAGAADYAAMgAEwMGoMYMcYdozV5lFK1TiHSZVGXfAtSxED4B18FPFRt2vgGTzXjVnY231m0S9038fgGD4GA2AADJRjAMIYhLHaiE2YQJVr1Oj8hsNP4H044oj2aOIInsEz2gIYkAygXwATkgn8DSbAABjoFwMQxiCMQRgDA7VhoF8dZT/KxYIBE4N+cNetMsEzeO4WW8i3vmyhX6hv7NDuEDswAAaGjQEIYxBFaiOKYAKFDnjYOuCi+oB38F7ER92ugWfwXDdmYW/3mUW/0H0fg2P4GAyAATBQjgEIYxDGIIyBgdowMEodOxYM5QaxUWKiznUFz+C5zvzC9u7wi36hO34Fr/ArGAADYKB1BiCMQRSpjSiCCVTrDRydYn19Bt7rGzu0uzh24Dn2CTiBT0adAfQLaAOj3gZQf7QBMDA4DEAYgzAGYQwM1IaBURo8sGAYnIFylLjrVl3BM3juFlvIt75soV+ob+zQ7hA7MAAGho0BCGMQRWojimAChQ542DrgovqAd/BexEfdroFn8Fw3ZmFv95lFv9B9H4Nj+BgMgAEwUI4BCGMQxiCMgYHaMDBKHTsWDOUGsVFios51Bc/guc78wvbu8It+oTt+Ba/wKxgAA2CgdQYgjEEUqY0ogglU6w0cnWJ9fQbe6xs7tLs4duA59gk4gU9GnQH0C2gDo94GUH+0ATAwOAxAGIMwBmEMDNSGgVEaPLBgGJyBcpS461ZdwTN47hZbyLe+bKFfqG/s0O4QOzAABoaNAQhjEEVqI4pgAoUOeNg64KL6gHfwXsRH3a6BZ/BcN2Zhb/eZRb/QfR+DY/gYDIABMFCOAQhjEMYgjIGB2jAwSh07FgzlBrFRYqLOdQXP4LnO/ML27vCLfqE7fgWv8CsYAANgoHUGIIxBFKmNKIIJVOsNHJ1ifX0G3usbO7S7OHbgOfYJOIFPRp0B9AtoA6PeBlB/tAEwMDgMVCOMrdxDK546SpsOn6PtLx6l9XufoLFFg1NJADccsejOBGohLdh4gFYeOEFbp2dp68GjtOaxCVpw03D4DOzXN45d4X3Rdrpjz2Ha+OJbdN/hE7TxwBQtXnlbbcRx8AyewUB9GUDsEDvJQFfGOXzhjTEdDIABMAAG2mCgAmHsCdr46mG6Y9cJ+tybF2mX/f/gs0/0ISCraP/0DE3vW2XKXrOfpmdmaHKiO5ORiUMzNHNowtZTlF0QjDBdO7aly9L5zszQzPR+WlVQvpyY1OXvrkyg7nqetjx3gO54atazqxi+9/HtfeC3HRaQpi78tmpnN3hf/OwsrbrnAN39z1lfvev4MVpcp/6iy/16q3HC/eX6oG7wDN+X831lfpqYpJmZadq/psfl1ql/crb2s5+qUZzQLwxRWzr4DP35yjP0Y9cG6nb8/B76zyuv0dWDQxSTusUA9mLt2WcGKhDGnqSNx8/R1h+coweZMLbr4JN9CK4QjLo8MQkFLlF2QWDDdO10wHFZq/ZND60g5ib1XZlArZ6ie994i7b+iAkFShjbC2HM+R3Hdtpo52m6wfvigxdpxw/eovuOc94hjHXKuO5//ZckPPamr55RX1gM8ZcWZfxXPc8305HfbqK5q2vpyKPG51u/fie9c3kzXb++ja5f30JzF5fRM6t5PPC5TKxy76mR4JJbh4K5Wctp9BwzRyjs8vyz0NYaxan6fqFBu6bX0tzVTXR++mazDtk6Rj85u5HmPlT9wla6fnU9/ewbN/ZhjTLk/Q+EMTBVZf+KvMBTHxhoXxhbtJ0W7z1CG589yv7/gj7jxLGDT9KC9U/Q4s2b6caePZYWC0bh5GGCJivcQRYKXM3KzgbEMF12PrS16HxcVud5FpU3GNcqnUAtmaDlT3F2j9LG52b9rsd79+6kRdsO0B3rlw95x1RtmyjPcPtMjYIIrPxYHe+30dj9U7Q+6KuP0tbXnDh2jBbfPkGL73+YFt2ycDh51wvFSZqoeJDV/a4TvSJhzIpi/rz8u/020It2VnUZ1fHs/LaQfnJZLXQ30E++2KDGF++ki1YQu3h2JZ05u57m3r2TdlcR8y7xk/LxwPRvPaxzyg/pcwM2XhUJY1VwNwJ5VN8vNGj3sQ1aHL9yTI1nC+mNi1uNIHZxNZ351Wq6OLfe9Bkd+3cHXe3VDqM6iE6V2riC3v7da/Sfr60YzjlJx+y5cRDH9FgBv8Av7THQpjC2mJa+4BZVOceDT5LanaAeS3vg2Sfoxp50ArFgFIJR7aQqFKOalZ0FKEyXnQ9tLTofl9V5nkXlDca16iZQE7TKiwJpfu/d+ySttLvIhvuxymrbRHmG22dqYBaOXe7TquL9xl0nwt287ssLfzxGix84Zh4lfuMYLb6l/dj0Iv5tldGNRT7LM9n/suve5hFeSFfFs/dlIxTGdr1hFsPXZ8erX0ilYtml9j8w/VsP65zFtFnfM2Dj1Qi35/IxK45p9f2CEMYedYL5SpqsvM1CGAs4gDBW/dhTObPF7TGIJ8pGPEeQgTaFsSdoY/AoTiwubHlsgxfGWnqHjd1+Hj164icg9lv35Lf0QjDyaRrU0JM8+ziLTdv83WNmEuZtmQl3HISLIVF2AUwunZ4Au3qIvBt5ftD58rKkjewda96G7P68Mp1NYaeYpQvP96djrWwCddfzdK8XBWJ2dx0/R+vv2emFsV2vPk+LvC8L6u54mzDvtjPcWGYC/kKOtG+D6+F74srFRnBQ5j1zssxgN6WJfcZ+C+/q0/lO0oTL39tSLs+Q0fg9ftym5Pv0XBzWiPLEzh3/LkIf28FadFXF++JnE4wz/h+c+jYtcsLYmxdp484Cxr2v7D2in5reN5F4z+M07fdtQrGf9SthrBPtQpan/vbxtTY43oQtrn/X7cf3s2oM4OWIdtPm+5NSbTR1rtEQjLk24uzzjPIYNPdXuqws3VD1356JUBhrfGMFzekdY5vo4snF9PQD3IflPktWFEPynOfHcRiwreIbP1qXik/IvurnvqzbTqp/0/dKNlz59n1frgxnb9a/CcZ9f5zvE5dHZottM66t2RjIMtX9ptyw781scWU2sSnVLuQ5Nl5JXwblOT/5OLE+IMiT9ws27srnwT0iti7v1DvX5DWdzyRN6PPZXNT1U66NyrqE10O/5r7vzZXl2oooMzluunt7fKxqnHP+U8dwx9gYnZozj1DOvbuCfvjUzXRni3X88cnX6M9Xsv/6HVRaBMrOqev6vH5P1ffo7YPmfVXmnVtm95N8d9V3Xvse/fl3e+g7zB59jpX155M7SJbv3uOl7z25I1y8u/I/b9qaTsvyyHZgGVHP10vYwf0ZfxZpr3yP3lblCWGsjH0N+16vwA557kq4cyz0hy3b+jCvvmGanPeICd81GiZu3jZXTxav2Deuj8MRvgEDdWSgTWHsSdroFlbHZ2nNPdtpwZINtGjdw3TrOvN57J7DdK8Xz8q+w0YsGtQC6pB9kbwf2PnExE6u/IRRLATkxEQuSpp0bqv2TQYvmdWTQDapdJNCE3hRdkHebtKZTd7sZMfXQ03K+CRNXo/LCm2RjdGm95NWc93YkZ7w6jpF/pP59vbvyiZQ6r1ijt83TtDy9RtowZLNNLbxYbp19WbN8q2PnaAH3D0/mqKxgnj6hu8Y9Yxkfs8mojKWDTITYc61W4wVxCaY+Mp2Y9N7O4riFKd1i/fshyWcGOEWPUX5MRGa8Vw2z4BJ7XPrL1YX7S/2t/e/i5GLQ7BADfuKZB6BT5vU0ZXVxWNVvLudu/pHJf52D40t2UAL7tpJt27aSYvU55V7aM2rmXi2saygYP3MF25R3+ZiEcQraxdZHyiYL/KrzpO1Fx23UEw2bYr1oanYWtu4DW4RzOsU8ZWwLe5/TR2DvHU6dl7WQ41PQZtxDJbwV279mJ8SdpepW1X3VMVzZo8QxhoNely9W0iLY2YhfPHNMdpast5RnzAxmf1wT65/Q+5MPxf7XPIR93NZ7CM7GnaMkGwIflzbC9mN+3d9X9AeHWfimKqzOBeVqa8b0cfboc9xnzSxSdRL+9TXPU4bXs/GKl++befRGKzEaO8H28Z8Oa4/4l/MJMbqyFbmQ3nN+caX6fLL+qko9tZ2Vxftb2ajnKP6thHESfqMzatLtg2fbxfur75fkMJYg8b3LKbzV9XjlKpf2EbX311KT29lsSqoVyReHXyGvZw9sWPMiTqB0FROGDPiDX95/Q666oQvITqpmJQRnpwgFIpysd36vsDmHP/Y+mUCm7LjmTaFMWnHCnr7pBMK049SajudT1TctF8ycSxV3+IYsnoKYUyW5etZwEs32wryZrFCDEJBHP6ozB9tCmNsx9jBJ2nRY78oflSn7K+eyYkED7SYIPgOIpgAsEWHShvlJycILTayoCw7cfKTFFE2t118Tk5MRd6+fjZtOGGKy5ITpjB9POkz17k/zD1uAqau6zJ9/Vr0lahzaE97eVU2gWI7xtS7xO44IH44wgli7tjqjjH+7bGOK18UOOHITYZ5DLhf+Hn+2dzD452MU8Q+z5t/jvMOWcvuzTsfxTZR57y0wfk8m8X5IE2KM31/Yodb0MZUvcO4KJ/GQkZW/6ieqbIrPFcV79mOsWO0+OPfpi3+C4tMDHO/JqyOZXeMcQYz34i+KRmLMv1Rgd8FD0bMCmPphFjfnwWxN3mn7Zf9eoEdLNZxXsIP/l52PmFT5kdebhl/mXt8fYe5//a+jIUx7b9lN9PTr66kK3oRvIVOfZP7Mv9zHEN2bypWSbbjfkXZFOQt+fX1MeWl+jd9To7FIh9dBhNdVLll0qWZk+OU9YXwQ1AvXY8Uq4z5MjaJMkL74vEqvK7sDMuL54GubqLPEOWm/FkqbxdPEZ/m/VQzdkS9XDmpI6+LtCN1fx/PVTXOcQ7CHWNZO554ajGduWIEsrlTt5VaSElxhJfTaEhhp0FuB1QoRJUQxoQoE5bjBCAumrUgjAnBq4ygFpVvGSn0hxDvmpZTWOeEMKbvD33gdnU5oU7bJ+pbaDNnP7AnUT6/F59LtZ88jnA+65fgi8HyRZvC2GJa/OwF804a9i4xvrjinx984UDpd4zpyYj6Jq/JJNCDFAz6YuIQXFOOLzOpCgOkJ5buMRd9dIKGmOzKyVhBpxlPJt1ELctb1c/7wpXvJ72inu5e6TNvQ3y/8V94PpxEm2t8oeV97vMNfdXt69VNoLbTSrtDhr9LjDPLP3/mqYlyA0DEWzquZoJsY63ThHF3flTxd0JNGJtwAh1x4ngRwo/LNzzGbYKXG9xbYGtwH5+UW1ZK5anSecY5WyGL2hfJ+2yaVByUHeJ8aFPo06A+Nef9xp3H7O5H9i4xJ/rK4/ETtLTUO8bCmGT+CvsU6XNzn7jH+zfvPGchjmPQnnxeguuIyTz7bZst4suXkdml22DQ/+bVhZ83n7PHz7L8Mn+qczwNvyc8H/YR5tpw9t/WB+O32Uek1tGR+xrUGG/QOIvN5KzZHXLmBe6zgs+6f1C7nYRgovKM+ElwqMtO9yMBH7n9nLEt1b+FsbV1SPRnct6ky/XjQfb4XrKOzHeav1SdxbmgXjp9yGSqvTe3yeSRbheiXXubzfns0c9s7Ez2QaIeqfrGdTN+D86LGATtVl5LlcnnpJ4/Hif72fUtOg91Lj1n8OWLsrzPXT7ebwXtoUf3VDevy+ry3VNb9M6w89M36bnb+Hh2rfHCSrNrrOy7CLVYoh6ZzHYleT/nCmPy3hLCmBKVhKCTldOhMMZ3WDUaiUcz3SOh0m7mN81Duh7ezlaFMW6LsFEKXroMnb+zNTwGwpjMqzCGrI6BMOZ8rsqRYhxL06N24n2M8sqtx+An+KlNBtoUxhrUuGkxLdr8BC1evzx7l9ib52ir+OWz9XufoLFFrXYi2cTIT/TkJMNVODgvJmXBNWVD3qQqZZ+daPEFUmqy4ScaomxnX+IYTKzcdZ63myD5vO03v96WuKxkni7vkgsrM4Fkgo0vL+Wf3p+rdAK1aDndes8BGr+LvUvsn2fpbsHvmscmaEHZX1WNeMtZUEWxTk9yVUydMBbERqVnsQnu8zEvG5+4TeTmp+uXtjUYtHn9rD2l8hT1yvI0vLtFfmrhmN2bt2BNnOflqc+svQX5tezTsr4vvq863hfSjR9/mBbfP0EL2LvEPvOy+FXWA1O0eGW5b9GdWONikvlL9E2pNlG2P8rzu8wzwVvU10f3hExl9lcljMkvTlys4/bmbE0LASqd8Kn3izjP26f6zPqIoH4+vbOpN8fKeN67hN75zUp657J9NOrdJebXRp9bSdc/3ETmFynti/ivr6Mjn2uxfpoVJT4wgSziJ9GfaL+q+LJ01teq//P9i8qrIDap/q0TYcyPIa3GPVVncS6ol85fMJk4lzsWRPbZOVjwCoi4/WjfsPeNRe1F9heqHFEP3T7EubhuhqPgfCpvVw95TeRv2iSrj76/xPjqdt2JL2qDNp4sy8RGi4cDNNZV1i80FtEbv1lFZ85utI9Mrqc3dNsfpzMfbqE594uUH5pfqDw/fXNrC0cvynDxKG/HGL9HcZMWlIJH/HosjDkhKeDGsZt7TNfD59GGMGbSmnz1u7y8qGXOBXY285ET2nweou9PxpDdI4Ux6wcdJ/3eNwhkPta5jDB/4p7W+hj4ayD81b4wxgLI32Gjdtrc94O3aEfZxydZPlGD44O7nGTYdOEkUkzKojRsElJUrrrGy3b3inPBBCl38RJ3EmE6e53lHdbJXA/PiXq2u2Ms8o9ZzKnFriqv7Qm181fFx+omUDwm27OX7NvdMztefoseKPteMV7HhD+bc5THpDxvYq5io/jhsQnZ4HUr81mWI0XYLI/S5TCWXZvOSxucT/lP+VecD9Jw/7vP4v58G5RPzSJW+TQWebK6uzx6eewK70wYU331g0ffoq3TF6n0e8Wcj21/5xf7/rzhyfOZjEXcf2m/Ju9NxEDel+DNiU0+pol7kv1w0740YU9OmiSn2vb04jd5v/ZreX85jlVePgY+Nmnbe8V0ZTwfvMsufNVidwV9d4ep147nltH5y5v9tSvnV9DUQ+3WWfg8wY/sl4wf4/7UCTW+rUh+RXxSHKTOmbElE+FSPCfTifJy45+qszgXlyn8luC3VZvC+6V/m5eXjJOoh/aBOBfXTbEkyi+Kpbwm8o95EXk3jVPB/cmybFsouta0zHbbU366yvqFxm10yope16+up1MHbzI7SO8bp5+d30hzH5r3Dl6/so5Ofe/mYHdpbhuI/CHFmtaEsUDkcSKO2yWWI8p424TopM4HwpqzVd+XCXOpxwiT6Vz6JsdUfnk2JssR9vm0qtygjtLX7jHVrG5BWmt3oX36nkS+rs6FMUjE2qXDcSAEjRQPOJff98I3ad9UI4wFv3p2ge7etYdWvVr2hfvMsDX7aXLfqqyB8QFcTzLEFnJ7LlsAiEmSnJi0IF7FkykzCeFb2MOJkyi7oKMM09n687ryzyofV3f/LXNclsxTTyb9dntzv/qm0C8U3cLW58nsOLTfCwaD1HCqm0Ax5hrZY5Xm8clZWnXPAbp7quQvUfI4R7yVE1hNrLIFjvK5jmcyNpM06eNq6xG1A3U+e5lzcQxjltzk3y/kGIMZP9yH4rPkV/vIth/+TbW1m+ep6x3Uz7LL00X5m7x9P+DaC88n6SMnAO+Pfcrj2qfPXeF957HgfZCfe+4A3fHUbOn3igUs6TjwPsVyy3d4aL+HbHuhoEx/lPK9zDPiwfLP85dpVL4pJnRe0l7Bd8Im2f8aPwku5fjDX+7udoHYNo/+u7nPAxYTMWn1euoHb8I+RXCRYirRd5tYsh1j7h7eP/H+OsWzZTXrK918JLMpyWCKcV5Wkd9S9RO2xWWmxhNxrplNBe3C9R0+Ls6XbHxw/vb3lKiHZiVVN96XubJ43FJ5O5/KayJ/3ke4uMbjnxqj3I9AyZfmGwZ0WutTl0/whVzRvNrZ2sdjV8a5Cuvz45N8l5AUVeTf+eKN2XXE8tIi0GvB45Na1Ake22Mv30+JNvoc/4VFI97wxz6TQpFNFwp1rKwi/yXS+pfSB8KW80WBfZ/fQ1dfW5Gt+UT62Hbjb/nIKY9RnEY9Osr8bnfvmbobf3k/BD7mPwSgxiMIY62Oqbi/9/MY+Lxzn1cijDUWbafFe4/QxhffovsOn6CNT32bxpeVfSSHVcIO7tl7Itg3626SEfzkdrhzJpo0uTTRy9DNexv8JCJnEHATLGPPJE2IiU04KRSTv5w8FbRhOlv/VN7u3SDT+2li3zR7/CIuS+aZWlhN75sIfw5eCi/aZjvhZhPNQWloXZtALZmg5U8dpbtfnqUdL58g/fjvLQuzwbogloFvcnljHKu8RKxVHiFr4SIqK6MgNlHbyRZMWXrW1nidtD2yTbiFlzkfPFbE06Y+J+pnbCiXp1kcuHJlG1d1MPzrdqkZNvlGC6HCvsL6wvrNp03Vp0/nusP7bTR2/xStf/YEbT/6Fm169jAt37yhddadTxg7RngXfVOqTXiBqEx/lGBW5pnkzTDB+/iMK9Yeo3bDrrk6ljjK/jdrcyHzAWfCd/zxOvTfibiXiEPm99bTZ3yYvieIlRu3+eNrkkNvXxzzFB+yvIxV2b+ZuoRjxCRNiPJTZWh/RIyXHxsyG227EG0tLlO0f+2TxLkimwraha4Pu258Jv1t+hUfP+GnLA/R1nPqlvlAcSHSRPWw45aaP8lyRf6G1aJ+iuXF/JjNj9mXEtYOzxAvK7JR1MFz23qbMXXoLF13xrnObOL1MmJV9j4rL6I4vzmB64oVgAJxhdthRR39SN5r9OeTO5I7vmR5/CX+2bVM6DGCm7PvGfqxKD8lFOn6WYFLP76obSreicV94n5gwKd1u96EsKXSFNoX2ZDVS9qY+V348cprlF2z708Tj1JmfjN+yu5vIoz9zvnVHHksAn84FnBsfy4J38F3A8JANcJYLyojJxm9KHNoykhMTHPrFk/UBmUAGPQJ1KD4aeTtaKWvaOXe3DbDJ7/Vfa4n72X6mjL3VOfH+reHVvyF/rv+8Qb7gxDDWPSrUVyUMJb84nPw6lDPcW7w/DgIbab2NmihTohzPZ731d6H8BcErpozMNLCWPgNrP12Tn8jXP4b1VQn1q18U2WVO9fCwop/0zhgcGMC1cZkLPq2OOPcf6Peapy7kWerNhTd34LYpdvqgC4gasl7Kd8364/CHSB8h0TweG8RAxVcG5x+vJm/WL+A/huT0pLsDw7fjN+Stpeb93SWb52FsUEe12TsajnODRCn0p8d/x3t4sp2TWU7rTprWx3b2C3/J3a8Dayt3fIB8sUcYsQZGGlhbHQ6vLILq7L39WdQxASqP36vXTspJc4oXw7u7hrl84HnfWJSvODdClpNH8Me7H5m8Hgv66+y9/WnHxl4nkd8Mjh43PeHU+eH+gpjgz2uOf+6I/qF/nLu4oBj4n1xGBMgEoGBkWMAwthIQN98weS/PW66qO3fII4JVP98X6tJUwlhzL03pu1dcz3oNwaed+3nbAei3tlVqv9o3h/Vireus9DcX+i/0TeizVTLQO2EMdYfD/K4Jjkd+HGu6/17tdxK/+LvZv51P1hg3vsGfzXzF66DkeFmoD7CGAankVNtZeeDCdRwd0Yy3qP+N3gH78PUBsAzeB4mnlGXanhGv1CNH8Ej/AgGwAAY6JwBCGMQ3GojuGEC1XmDR6dZHx+C9/rECu2qeazAc3MfgSP4aNQYQL8A5keNedQXzIOBwWUAwhiEMQhjYKA2DIzSYIIFw+AOnKPEYVV1Bc/guSqWkM/wsIR+YXhiiXaJWIIBMFB3BiCMQRSpjSiCCRQ63Lp3uK3YD97Beyu8DPq94Bk8DzqjsK/3jKJf6L3PwTl8DgbAABhIMwBhDMIYhDEwUBsGRqkjx4IhPWiNEgPDVFfwDJ6HiWfUpRqe0S9U40fwCD+CATAABjpnAMIYRJHaiCKYQHXe4NFp1seH4L0+sUK7ah4r8NzcR+AIPho1BtAvgPlRYx71BfNgYHAZgDAGYQzCGBioDQOjNJhgwTC4A+cocVhVXcEzeK6KJeQzPCyhXxieWKJdIpZgAAzUnQEIYxBFaiOKYAKFDrfuHW4r9oN38N4KL4N+L3gGz4POKOzrPaPoF3rvc96Udc4AACAASURBVHAOn4MBMAAG0gxAGIMwBmEMDNSGgVHqyLFgSA9ao8TAMNUVPIPnYeIZdamGZ/QL1fgRPMKPYAAMgIHOGYAwBlGkNqIIJlCdN3h0mvXxIXivT6zQrprHCjw39xE4go9GjQH0C2B+1JhHfcE8GBhcBm5QgxL+wwdgAAyAATAABsAAGAADYAAMgAEwAAbAABgAA6PGwA03HPoPwn/4AAyAATDQOQNqAME3QYP7TRBig9iAATAABpozgLGsuY/AUb6PwE++b8DNYPoGzA5mXHrdXm4YGxsj/IcPwAAYAAOdM4CBFQNrrwdxlAfmwAAYqJoBjGVgqhOmwA/46YSffqQFs2BWcQdhDMIghFEwAAYqYgADKwbWfkzoUCa4AwNgoEoGMJaBp054Aj/gpxN++pEWzIJZxR2EsYoWxNht0/luG/gQPqw7AxhYMbD2Y0KHMsEdGAADVTKAsQw8dcIT+AE/nfDTj7RgFswq7iCMQRjDbiEwAAYqYgADKwbWfkzoUCa4AwNgoEoGMJaBp054Aj/gpxN++pEWzIJZxR2EsYoWxHXf6QL7sVsLDHTOAAZWDKz9mNChTHAHBsBAlQxgLANPnfAEfsBPJ/z0Iy2YBbOKOwhjEMawWwgMgIGKGMDAioG1HxM6lAnuwAAYqJIBjGXgqROewA/46YSffqQFs2BWcQdhrKIFMXbbdL7bBj6ED+vOAAZWDKz9mNChTHAHBsBAlQxgLANPnfAEfsBPJ/z0Iy2YBbOKOwhjEMawWwgMgIGKGMDAioG1HxM6lAnuwAAYqJIBjGXgqROewA/46YSffqQFs2BWcQdhrKIFcd13usB+7NYCA50zgIEVA2s/JnQoE9yBATBQJQMYy8BTJzyBH/DTCT/9SAtmwaziDsIYhDHsFgIDYKAiBjCwYmDtx4QOZYI7MAAGqmQAYxl46oQn8AN+OuGnH2nBLJhV3EEYq2hBjN02ne+2gQ/hw7ozgIEVA2s/JnQoE9yBATBQJQMYy8BTJzyBH/DTCT/9SAtmwaziDsIYhDHsFgIDYKAiBjCwYmDtx4QOZYI7MAAGqmQAYxl46oQn8AN+OuGnH2nB7HAwO772cXr+2Ck6e+F9uvb7a3Tt9+/ThbdnaPpbj9O68eZ1hDBW0YK47jtdYD92a4GBzhnAwNp80OnHhAdlIi5gAAyAgfIMYCwr7ytwFfsK/MQ+ASeD7RMwO9jxSbWfnc8dp9kj+0hfW7abpn71Ps3Pz9P8pbN06thhmvr+lP4/feIsXbo2T/N/eJ9mv/8wjTfy6wphDMIYdguBATBQEQMYWPMHm9SghnPwFxgAA2Bg8BiodCwbv4m+++Y6unJ1E52fvtksYuzCZNf0Wpq7upHOvzlOO0p8mw9WBo+VVEwq5cctYm9aTbc+NEXrD/6Cdkz/gu5+9jAt37g64CllC87Vg5l+x6krzDp2cexKO9197H2a//Xz1Nh6kE69P0/z783S1BfuzCnrTtr98iy9/4d5uvTzp2lbTkxqKoy9Qh/8hegvc68Mx4L+5Q/oL/QX+uDlznesDPauHxM3+tPp7sZt9iOiGvvz9J+U+R/QKxWJNYPNRHPmq/fHJnrl7XN05LMFZX/2CJ17+xXa1GIMaj2wrtlP0zPTtH8NJlHRBG1ikmZmJmkiZyCN7h+U+yqxexXtn56h6X2rciYbg8PLxKEZmjk00UU7jS+6WwbzZw/bZPd9x+pVZfso5aPexa3Ij/ra9H5aVWX9u5RXlWPZupdW0/Xr2+j65dX0k+duCtrnjueW0vkrW+n69a30zks3BtcGtl9t6vPe8TaoPqqSH1fHRY//gu7etYdW/egi7XrT/Z+llXd1qW9pGmeU62IzDMduMDsMfhnkOmhh7O3jdPzSPF27ME2P8y9Xlt1NO7evi3aHje+Yotlr83ThtfRcsXNhbHIVzV3dTHO/XGzEjqW30Q9Of4LmPlQD3Ta6Pnc3nf3ReBtCyGlS8kb47yM6rReqIyiMafEs9EbwV7fFphYFgrQYU50w9sqcUkZzxKMeC2NauGnR/0VpOhWCdPoADvWHazsFYlAlMa4+/079EbG45RX64H+I6H8+SItjnz3ir7+ypbX6VD+w3kxHfruJ5q6upSOPmknY1q/fSe9c3mz61+tbaO7iMnpmdQUTtFILzArKaWOyWbTYXLVvustiSIMalQhMffBdJXbXWxjT7MzM0Iz/34nA2Y0F7wRNetucndbGHrbJojZWdmIc+3qGJie6zH0pH3Ujbul6FflRXxtBYWz3sQ16vDrzQtpnjRdW6utXji2EMNbG+Fi2ffbyvurnQg0a2ztLDxz+Be047kQxdZyllVXMf4bE781ifMuCBTT1mW307t4v0L/v/xKdffxRenTtykrb3d9u/gRdefJLdHnfF+lrn1wX5f3I2rvo4td263vUvc1s7tX1bjDbK9tHtRwtjKlHJ6/N0vMbxPjy4izNv3ecdifa9vhTM/T+/AWaflCkqeTl+99fYxZov15CY2O30IunP2X+vrKBzp5eSxeufIpmv9/a4lKLHokdP6f/5HZVVSuMFYosvRALWt4xdlqLhh/NtubXSCDoRd0qKCMVn9S5ftWvSOTKs6mdNHFe6XZQTd69YqtPLOeJX81EsyY8Vz+wLqSfXN5G169voJ98sUGNL95JF9UXDte30MWzK+nM2fU09+6dyY6/5YGy1AIzHkTyytGCVUWLwKLFJoSxgpiMtDCWFkMmDnUijBX4OjH5Mm0jX1jU7CZ2aU4csjs3K26TeW1VnS9qY0Xp9DVtZ2JX4cRk93ca9tBHTf3QqR9zGWqHu87SVDmWdUcYy29XZeKEezrjo5n/quNnIS3Y+G1a8+xR2sj+3/3qBbtrbJZWrttM4w/toVtvv60FkeVj9N53vkX//cjHWkjTXZ8182kV1yc/vYXe2/9Fev3BHbT3k+vo9Jd30f/96qO0eeniyvzghDEljh1/5H668cZwJ+g/TNyrRTF1HcJY/Zmqgst289h55IJ5p5gSx+z/2RetTwuEsUZjHT3/62v0/gn7fjI29na+YywQxpbQrF60baSfPt7mwlrv9mm2uyUtCMTCQTkb+i6yQBgr3FGYik/qXLvx7zRdO0JUO2liO9PtoJq8y7Wd2KZW0/VJGFMClxTHOhTFlC+qmwy6wTIUxna9Yb55vz47Xtkkxg9IFS8wIYy5GPbxOMrCmOa51yJYKtY5C/gysam4Tfq2ziaB7lz7wpjZ8db1nWEJm7XtPfSR81XRsX0/ptjp37kqx7Lx763SX5if/2G4QHZ+XPdD86hl7o6yZOxz2lXy3v750dVx1I6V8bPxMH3GPzbJd4q5z7O08oEpulfdc7yV3WOjJ4x9bGwh/cuXHtRi2NJbxvQccmLlx/Xusec+vSWaU6qdXW9/5RHauOSO6FoRz04Ye+crj9D5rz5G25Yt8ek3fOx2+u3fPEr/8qWHsGMMfZXnoointq8VCmMNanzrFF37/Qw9LeJQsTB2K/3jBfsI5eW19NMXxumTS1tZKKcX+vHiW9ynxLTosTq54DZpsifM1O4zeU6820k+vsgfl3MCnj6G6bQw4Qtyu9wyP2hRh1+fbfUdY7JuYzSWZ4+sQ+CnzI+BzcE9YxRcUw/lBTvVjC2+Om6nX9KerDwdUy8Iijh4P4vzqhBrW6Ew5sp2u3vc38IXYT3GKIyLrKe0JYurFKLc32F+odjr7onZtv72PnCxzTys39Em6qJdY9+5V5S3KU/WRdTVxUVzqXI2trt89dGaY97zF+Yn3/0X+oG9G1DHhdUrYsu0GVeu95VMx33lYl726MWwj+gj+3hlq49Pert6IIw1vrGC5vSXD5vo4snF9PQD7Uz45aNb6d0pyZ1Y0SLULE6yx9RUXvLcDM2wnWNml4x7ZEw8auXEAn3M0hUtNlN26vv942nyvWmy/rF4EqafpAlnFxtA26lH/gBfbJOrf1hme3bn2xDHzYgdqQWosJfFV+evOclizOPf8AyFecTvMAuvB3noOIjrhybCXU/WhqaCjWPN8eLq4mLuruvzwhe+LsJ37j1n0g8zbleVyIdxFcTH5x/WNfCVss/Z7PMx9/u6u7oIe/z1xE4nx1pQls8/63f0fVH52fWgPs6X0tc2X8c5b3+m/NC/gU3eR+E94XvghL99mgK/KpuEv8I8VR3D9Oq6q0NQb1E/f036w3GT8LNP06NrVQkbd25aSJOnPql3OZ/6Zg4X37xLj2tXTo3Trk059/B6y7j4dmXScn5mgh2ZjoMJ/d5EN26ZdhDGkreN7FH68J6AQ25fw5WTvZcxtEmMe5KjwGb2KL+od2BjUH4JH3b5/qr4WfT4LHufmBPDsuODR4/QHeusMPbmRbr38e3NF9vLt9N/T32L/sr+851jJ7/Gr+2l95Y7fzoxba3ebebS/8c2dX0t/QfLz5yz6bY9Sn+depROint4mWH7duV8jF58ZC+zU+Vh8tQ2fm2tqGuWLszPpLnzlkX0qy8/FAhjn1zyMS1e/fSR+0VeDepUGPvhA/dEotvfbt5Av/vq5/XjnNgxZvnocltMsTAS55oJYxsO04X5C3RYPIJZsTA2RmOfXkxvXbbimFrAXV1L//D5TBTii8jos1uQN30JvVmI+wW4WigLMWdsLBSP5OL6lbmP/MvukyJLZItd/LtFuFucu7/tQlyWYwSrTEQxIgEXSZywlN0T+SVa5Id10/fn2sPLEnUYywSNTCQyeTvfRr6Z/SgTxqw44+5Vdni/Ju0RcbPpwxflW38wv0Y26HKavWOM1dvZwhiRcYjKsLY5v8i4+nqOxUKWvldpeP7HIaTf4zQ85kFZEYen6SPvG+HPPAYDfmL/jsk4urgwfyn7XL2cTwzbRtgKz3GWub1j5Mry94t2yv3gPpf3R8l+JvCH2jl2mj76XyL634/odNEL+WW6xN9VTQazQSvcMabOP65+xUuLY+qRyq108c0x2lp2YLUTaz6hX7Vv0rxwX1/LRCS94JULNXGPXAT6vBoNSi2Yo3PWHj/BdwtFUa4sJ/OPLYfdH92r8+T1svW1PtP3s4W9/DtbHGdCVLv14Hbzz9xv6ry0Qf8dLP6sCCDrzeqRspuXGX62Cz6Wn1oMmrjIRZ6518csaW/mq4ZdJHpRwcY8+DEDESMnOOSXYWwIOZ427xFjddBxCvwWTkTN9YwNbesh+3L0JIvCF74uPA/pS5FGcSfaURgLZqPPn/lT+kr9zeOuuRYxcnVh95m6Z/lqxpzvZBm5/Uuibjn3xr62nLMftXCc+7g7u2eYkCBt8z5qIQY+TVZ/I36wPKIYmbp6jq2Y0YxBHtvAx1H+EzTp/J/jQ55Xtz9XNZY9PbOJ1PuGr5wco3W59bqRnjmpxLNtVH43dJq9wMeqvIAXG0MmPLk+ggtosm2YPJTQz3ixDPH4ZzEJbdP5sbaX9a2uL3CCuW37lvuoHbA8Ihtzfcv6kx7eUxU/6r1i7kX7D7zwbbp1yQZa8PHtdOumCRr7+AZasGSClr/gHqu8SPfuLSGMaT+kRaRIcNKilhPHTJq/Trm/G0y4kucyEauh81BiGztnxbm0OObKCR/1NIKdzcOLbSy+Os/MjozH7B71GKN6t9gbuz5D39x6N/1y9+f0zq1uCGN/96lP0InPT9Cp3Q/S7YsW0qIFN+m/f7zrM6QEMghjWVxSscK5Dv3z3CzNX7tAh3flPWHzPM3Ov0/H1WtqWN9YvTBmF4uf/OoS+vkF+76xC8vogcQi0i18/VEvyJmgkZtGCAJK+BCL+FAYE/eLfCNRxIoAmbBhF9xaYLH26c9cAHCLfmk/L9uIEpkoYPONxI9mC/xEPil7RD2Vn8O6Gtvkr0TyewJRQuRXdE0KgibG3BfOX2K3kiqD+zmy2fiG2+j5cfaJ9GlbuA/VZxFLJwRpEUrY7cqxR+kH/bfkUdgk0/A6BNdEOn7fmBU2Jac6fbgRi1yM8/wWnLfCmOQ0sEvXPcVPsa9im3kc0twH5Rb6I50+9Jm4p247xlznvexmevrVlXRFC2RbKPebeHe/PUaLBn5dLNT0xFsu1IJ7wsk/H1jU52gxoBeSbOGZsilYxGSDlVswu2/4o6OzU9vHFi+6jGI7zaLHpgnql5Uf3NNBPaSPcv/WfsjqoevPFkU6Hb+nlN2sPjzuyVjxe0P/NeeCpzWfAxa0rUzoSMSoWRlBfqwuSb5teYqZcBErxCOWT+ZfyWvoCyc++gWsy4PHJrF7xKTL4pvLQQlfaTYlG1a08XYl21VYf+87fa+MTxxTY7Pxhy/H1T86hmVl9Q3Pext8epN/JkYpOyqIQQm/KltCXpzIYuLWEoO2PkH9Akby/Nu/81UJG+NrF9IPz6ofi9lMp76RUx+7E3ruV7fTxLKcezwT7rrgQF3XcZXtit/HP7t8DINhrEMuTf8v+4LUGOfyDMsJ4i7qkXctOF+i/WZtytnQ32NV/GQ7xtS7xPbQ+qPZbjEnmPFjqR1jOgYJYUwLS0y8iu5LpLG7wEKBy+we87vGAnEti4veDfad7fSiYKLRsMJYtCOM52vu8WU0rEgXpcnKU4wsuWURHX1oJ13et5su7dutP//r3sfICWNuV5kSreR/d08z1tyjlOqoXr7/b1/bTV9Yt5LUY5v/+sRj+hy/p1l+vbpeFbO9shflhGzH/thGz//qGs1fO5sWx/SOsbM0xX/JsoqX7+/6p0+Q+pZn7i3zq5RL+aOTjy83C7fLy2mPEBOSi9XSApFYfKvFshQi5E4UvaBWaoEUrqRYpBbOdsEvxQX9NxfGRF6+jDihFi/yhL/S9XaL+oSYUCAYREKJ95Xwo41RSiQJd3VlPpLiiY9r0h5RXl69xfnAnpSNki1Ztvxb3898qMuLY6bPuN1ZOg91RsQ8ENBMfAIhx9kmbEjeY+8Nr2UsSgHMcSrPh+kdM5lt8n4dM+0DWzfhfxfTOF8RT21/6pzxNfdwZgOLg/OVOIblFvkjrKuzO/dYh3eMjd9Gp+bUzrB1dOS+BjXGG8FPD0/OqmvbqNy7WcxkPXcRqxcV2eS/mTihByG7iA6+SbeTvGjhaBejkailHqtywlbOYjFYJIhJZGCnt4c9xmcf2+ILH53GPc6lj3YxpdJHIkO4IHZiSDv1iAfubGDPtcntyHI+cvXnvipjt0uXOCr/cv+EdiYWeYHvnK8zdlR6HTN+n/Or4MyU1VoZefYWceLjFtghF9FZPEIx1J0P7TR5hvXW9QnqKNIo/wfXXd6JY/I+kV8y9qmFvaxreI/23fQ0TfPdWQlWitgIr7H66HrI8s11Hss4fqKu2h5xLukj6eMyafg95nOyjdtdQ9xuXu+4DpkfwmtZGfltL0vLy+jF50oXifZXJ8//6Kbgm3lXj60/WqvHsfPT6evuvvDI42X9pPtE1x+FR+PjRBopImvGwraR7gvEuBC0FVGOZlTZI/sKc19yTObtWtdLth9hY1B+/7hxMaqMn9XP0736VyjZu8Ry3zl2jlZtLFv3hMjld3bxRynNZyN8JdJYYYwLVO6xSn8utbtLxSvvvBXGQrFN1SssXwtrXgiLhTIXi6Lj/Xd9nP7f3sf0o43qPvWi/NW336bfK6Zezn/u8UfpwVUr9N8rxm9Jtl+ZPxe93DvF1E61H9y/nWa/vIuW33aLfuk+doyVZRX3ScbK/50vjo3/faXvGLuFfvB/1tHs2xvsIz1b6K2DalF6G/3zpa00d3mD/UVK80ilEs2WisVuerHafJFs0onFtxIdvNjjFsfpvLTIolfomcARCy8m/1zRR9VFCB3arqQdzh63Qyor1/sgR4jw1yPfJeqWsscJPk7ciXZfCT/acmJ/uPoqx7mdVU18lLJH7nDKq7c4n7Indc77S5Yt/9b1ZD7U5SXiEvmdv4csuz8UbnIekxQ2yDTe9oTQZq4Ze3UExCOamchkWGuWt7xf5899IPzvbIvzTfETntNxCt4dFl4Pd3aytsJ8H5er7kv5I53e2R8cpSjmyvM7yD6gI208VlnZZHDvEnrnNyvpHfdY+rtLaEJNpJ5bSdc/3GR/kdK+iF+JZp8rM3AWTMJV3mKBGQhObtIt7nGDUybqZJN3fc6JED7/7LpLGxyTC4DiX8wL7OSLCWdzcDSLiUD84mXmpef3aB+0V4+grt6uJjY5kWmAhLHChbxbBDJ7AxaSDIULyTzRwfkv73ooPKTaBFtMNosjj7mPVWinbDPOvvC8SKPzYnb4vBP2lvBV+R1jktnQBu07K4wVxlfY29znrm+R5Zv68ljGeaV8J84lfeTKdEJEmTT8HvM5KVjY+nO7fdzz2ipL478E8H607T/a0Zjgwafp/rXKxrJGg5q+XN8KZ1eOLSy18Db+5vGy/sjrv73fEml6IYy58nWfwgWyAs54XZJ9Udh+OYOD8LlKfhq3T9AdD32BFrF3iX3u1RPBr1RufPYwLd+4ugV+QpFJ+0wJVckdXK69JdL0URhr8B1u6nOh7a4O4fGFHVvoot3RJbnp9B1jSiBTeSpRTIlv6kX8ShxT57h4Jsvt19+VMuvaPI4ttMmQzVY4GB/Pe1xS5enEsVl6fqsrYx1NnZuv8lcpb6N/fNe+R2zubjr7T7fTXXpheTv947lP0NyH7ton6Ow/3UGfdovOEke9CI5ELrngFYtrITpkC/3EY3raBiaKRGKRKSu9GGd25JbphCN2r6u3FhwSNum8CtK59P4Y2q/rm7AnJR6F54Qfbf7hPbwe4f2FPkrYE+1wyhFgZPnyb1Xf1DkvfMiy5d+6ntyH/DOvb97n8H7pB/l3Kj7Je6z/i66F9Q7j4epfPn1WvyDfnLjE+abK5+f4Z1eWPBf60tWBH+NyXV5NOPDtJbtf59tM/MoTzfLyY+crG1gP3kX6fSvXt9DcxRX03R2mM9/x3DI6f1k9lqJ2im2hK+dX0NRDrqNvfowXniyNWGAGYoYb3PUE3S02WVp9PZyox+nD68lBL7kAaEEYE3WIykjlz8/l1E/Xxb9fpv16RPYov/HyAz9nQkIybjxdKbtlvLK/41hl1+Sja8X3ph8vCtIkYxQuWIP7nU/YUfuDi676mskjFh7y6tIkjty/vuzQzlAAy8oJ7RdpbF7pOmR5aFZK+CrJj07HHodM1iWsv2fMpi0tjuWwF7IelpVdC897G/L8zeLs7Uv6SHIoYpBME94T2xLGJh0/k0ceg0V5hsyEZWX+6t35ysayRoN2HzNf4uTubK5KGEvGlfssjLHxa8hg8lyy/RSNS6lynB3htTwmgvPJ8lN2uzL6f6ySH8//6uwl+/rxyeOztPXwhRbeK8b9khC5mr6jK5GmA2Esep+Z7/dS5TTICGHhO8RUHmpnmto9Fu8w4/U1n7+8YQ2pl+J/ZeMaOvK5HfpxymMP36ff/+X9bO3IE8bU+8LUu8mOP3K/3mEm00nRy/3y5bt7v6Afp1T3y3tkHv34uyvM+pjGsehHHYexzLv0u8RO0TPikciwrtto91d2+iduxtUvUs5foOkH47h0/o4xtijki9n2P5uFc/qRNScepRfX2U4Yl4cToV6hD/70Ab3ibRWL8ZRwos+59HZh/fIH9JHbrZNK4x7BFMLe6T+J3UXB43jGlmwnlljEe5v5eWG/uidljzxnhblsd530oymDiyTc9rSwxV8yr4QK+6MGsmxdD1Ges4f7w57LYpmuG7cxYk2WLf/WtoQ+1OILt0OLb+4HGor5kcKN/FvbJ2xI3mNjHVzjP3aQEASDe1Pp7bnMR5Y3tosweiF+ZcJYvHtOxy3xwwQ83uYe0WacvU38kdWTtxf5eRO98va54h1hnz1C595+hTZF/pN5hX8P/MCaWPT6F7/LRYW9N9s1YSbi2eMgq2i/e1G5HvzFRD0xmdeTfS8wmQHJl6/ySKRRg1uwSBATDb2g9LuT7MJUiCYTh6zIJOtodwtkj4Im0ls/ZPdYe9qoRzhQ2wG5qU059Q98Vc7uZPksdsGCPu/l+9YfXphw6V0MArvczp3sF0bTYlK4WDT3yMc72cvJEzZoDtSjm86ONftpcl/2q3C67tq2TNg1abK/45fvZ+Kk8V3aTs5GyvY0vzZmgiNVzsQha1PEhmJG2GAZzuLh8m1TGFPxTPg3nx0rQqUewZyY9I/oxr62XLO2GvtJ1jVRf2trcQxEPmX8qllhPrR+8UwlfJRikD+aGtTPty/XD06nH+PW7cv2FT38XOVYtu6l1aRfuXJ+KU3tuTHYQbBuz+30s/Pqy56t9M5L4bUi5kw7Ye1d+8ayz5gy97l2LDjQacS4lTpnWYh3Gmd8mNiny/HjD7PRt9cER2YcZP2S7FNTNupzveckL0ZV8uPLuOt5upc/Rvmjw3THrhO0pcwvUSb8EwtTRpCSu8ZOfs29dywlWPH3fjn/i3PuEU2+o8uec49bml+fDMtRv3rprrvHKKVt+nHMr22n974TCmbeZ6LeShhT7/lSjzEqoerl+7bpF+On7r9lwQJac8dtdPNN4SPO25Ytod/9zef1u8JS6aTo5YQ09SJ+9QJ+lUbek8qn1+e6wqzwf6/rNBrl7aY3Ls3TtXOH6eFCccy0z/GvTNOFa/N06ce7g7HI+WoAhTGz0HQLaP5eIvcC8UigUYtXLTy4u5WAxoWPTChzd4SPSbLrXNQK8lQps8V6UojSi2iWly2ML/rVwl2LGc4QlWeOEJG/yOd1swtzIby4tEFZf/mATs/xX3MUQpUVAbjoFKQPBA1brhe3XGWtAJm0R5Tn6j37Af3F+yMU2kw9mE9tfJJ8uEf2ZNnyb13P2IeyrpI3ZmL2y5wunk64Sfyt6yBsiMrSmRvhV19z+el0rGTOp6oH87/jLEhvY+p4MEdT9yxXJzjzmIpzyXqJeOqy5LmwrL/MnaYPFIJOYFZpWB1Vu2wmjGV2KyC54G3tT9a5N9dqMbD6haR9B4tbRCQWi36h597DFdxjFyHsPVKZiKYGIHbdHAXh8gAACTJJREFUleFELpbGCxlqApFcAOQIQ3bCoW10Yog+x8q15fhFiHvRvC9/kiaiMkV6ZXt0j7XJ5yMWaIn73aCbOkZ+FumDBbWbaIl7An8ru3LsTpVvzjnh072bJ73I0/dKhsS7c7S9zjfT+2liH1v0Bwy5hYTxOY+TE2ey9zyxhaLygbBBpQ38JK6bfFydXLmZqOPK8TZE/s2Y9ve4ukzs1+/mivJwsWK2+LT2Whh763vHs8t/TWavi3OQj7bVxU35SSz2k3UJ7wl8p2xzebK2m89OHI+Uv6O6unpaX0Q2RCJguzEQfLXlV+VfwQ+Lq6qviklQB3vd9YvBNedf1k5WOV4G4FjpWDZ+M039aj3NXd1E56dvDhYju9SvLF9eR2deb+HXlZ1/mP+z9iD67+ARVcGBzidsB7wvdHHz45KImb/uxxXHR1iOjruLc2CPbdesHql248t39c61m/cT/f1cKT++3gtpwcZv05pnT9DW6VnaevAIrbx/J914U5t11TvE+DvEVD5WHJvK3jOW7cTqRBh7lE46gczmnYle7tctQ2Hsvx9ZS+99J7MjEsW0X4wI91f/rrE2feF93Dz9VzeupXe+8gip94cVjgkt5DkI+XSH2eb+HIS6196GrU/TzKV5mn9vlqa+cGcOl3fS7pdn6f0/zNOlnz9N23L4HFhhLFzI92ZRizJ77GcnjL3c43L7KJyAsdZjrYS+QEgb4PhhYMUkoPYTjJzJAuqVYFsvaIVgB//lTEoT/hsxXymBJBNwBtsfGMtYfJLCMrsecWyEMS6cjVr/CX4YH1oQc6IXOx9x466lBDh3TR7F7rTcPGU6/C3bJJitORPjD9PUr96n+fl5mr90lmZem6Kp75v/0yfO0qU/zNP8H96n2e8/7B+plAyovyGMDdQiO9xdE+yMcTuIBsre1kWOQBiCMEaBP4YptpXVRe5A65C5yuxK24GBteYDa5cmldFOGb97oFeiitwN5nYXiZ1uXap/avIxFOdGQRiLdrNk7NRF5BkM1sJdRINhU35/jbGM+aZlYSy1C43lNwL9LPhh8e6mMNZy3syuEeCwlX4WzA4HG+M79tHUsVN09tI1uvZ78//SuVN0/LnHaV2JRy0hjHV5oQzhIy0gaL9AGIMw1qz9iUdQB709YWAdjoG1lckU7h3hmI+CMIbFUzU74FoWV/rbrjCWMf+3GDv9RUjZR5CHtH2BH8ZPy+JV2R1jZe9jtgwpb1XMw8AsOFEcQRhrtjDH9e6JNxDGuufbmnObvUMuftfZIItjGFgxsFYxQUMeNeEIwlg1otEQL9ay3aK92h1aTdvBWMb8WFIYy94l5t41xvIYYsZT4xX4YbHvgjBmXtb/Lerlu8VScR6mc2CWMTti/RXnGMJYzQWEQRYJYFvBbjlwN5SiIAZWDKx8gMVn8AAGwEAdGcBYBm474Rb8gJ9O+OlHWjALZhV3EMYgUAylQAFRDqJcPxjAwIqBtR8TOpQJ7sAAGKiSAYxl4KkTnsAP+OmEn36kBbNgVnEHYQzCGIQxMAAGKmIAAysG1n5M6FAmuAMDYKBKBjCWgadOeAI/4KcTfvqRFsyCWcUdhLGKFsT92J2CMrErCgwMFgMYWDGw9mNChzLBHRgAA1UygLEMPHXCE/gBP53w04+0YBbMKu4gjEEYw24hMAAGKmIAAysG1n5M6FAmuAMDYKBKBjCWgadOeAI/4KcTfvqRFsyCWcUdhLGKFsTYuTNYO3cQD8SjHwxgYMXA2o8JHcoEd2AADFTJAMYy8NQJT+AH/HTCTz/Sglkwq7iDMAZhDLuFwAAYqIgBDKwYWPsxoUOZ4A4MgIEqGcBYBp464Qn8gJ9O+OlHWjALZhV3EMYqWhD3Y3cKysSuKDAwWAxgYMXA2o8JHcoEd2AADFTJAMYy8NQJT+AH/HTCTz/Sglkwq7iDMAZhDLuFwAAYqIgBDKwYWPsxoUOZ4A4MgIEqGcBYBp464Qn8gJ9O+OlHWjALZhV3EMYqWhBj585g7dxBPBCPfjCAgRUDaz8mdCgT3IEBMFAlAxjLwFMnPIEf8NMJP/1IC2bBrOLuBgUC/sMHYAAMgAEwAAbAABgAA2AADIABMAAGwAAYAAOjxgB2jGHHGB6jAwNgAAyAATAABsAAGAADYAAMgAEwAAbAwEgyAGEM4I8k+P14zA5l4vFOMAAGwAAYAANgAAyAATAABsAAGAADg8UAhDEIYxDGwAAYAANgAAyAATAABsAAGAADYAAMgAEwMJIMQBgD+CMJPhT6wVLoEQ/EAwyAATAABsAAGAADYAAMgAEwAAb6wQCEMQhjEMbAABgAA2Cgjgzc/lX6u71zdPrQdTr22CFafysmUv2YSKFMcAcGwAAYAANgAAyAgXozAGGsjosh2IxFPBgAA2BghBlYSZ++7zyd+t5/0ekDv6Qn7v0l/fTQf9FvD/07vfipB+l2sDHCbNR7UopFBeIHBsAAGAADYAAM9IMBCGNYQGABAQbAABgAA7VgYCmt/9TP6OjfJ0SwWx+k3Y/9O522YtnuZUsR01rEFJPffkx+USa4AwNgAAyAATAABjgDXRfGvv76GTrz+tftBP0heunn/O+iYJh7T0491N7kftdLdPLMSXppV0EZZe4Z+ol1KzEp8GU7flqxk3Z+quI827GjozQdctpR2V3w3Qi1Cd03/fwleqibMdD+PEOvH+hCrLppt8v7wOt0plk/6u4dhWOn/uikz1vyLL144I/02+/9kX5a8Njk7csOsfuepdVdiEs4ruewrX31On29TPmd+rVMGXW9pxU/tlTHIRu7Wqp7DrPIo735NvwGv4EBMAAGwMAQMABhbOQXff0Txh6dOklnZg7TVyoTxxbTW1c309zVVXTINs7HXlpNl65uoevXt9H1Dz9FV84to8faaLh6IXjmDJ1h/43YMWSLi1LCmGWG+YL75cyZkovhNuLAVf1OP1cmjBX5rMfC2EOqTbUo9hWm6VCw0HlHnDT5wqLPXBRy1aE/2u/zltKev/kj/Xby3+jvVpTZCbaUtt7/b/SbqT/S0Xs2Vz5Za0cY6yZnMmap/jrro8rx5/IoFLVt+86+/OuC4NIzYezr9HrUVs9Q219ODnI7hm2V9wmyDeLvLvQF4BbcggEwAAa6ysD/Bw30hNoiYdZOAAAAAElFTkSuQmCC;" vertex="1" parent="1">
          <mxGeometry x="90" y="90" width="1186.41" height="100" as="geometry" />
        </mxCell>
        <mxCell id="npJGMGMSL7v2pL3vcZeN-16" value="to dict" style="swimlane;html=1;fontStyle=0;childLayout=stackLayout;horizontal=1;startSize=30;fillColor=#e0e0e0;horizontalStack=0;resizeParent=1;resizeLast=0;collapsible=1;marginBottom=0;swimlaneFillColor=#ffffff;align=center;rounded=1;shadow=0;comic=0;labelBackgroundColor=none;strokeWidth=1;fontFamily=Verdana;fontSize=12" vertex="1" parent="1">
          <mxGeometry x="590" y="250" width="250" height="110" as="geometry">
            <mxRectangle x="-130" y="110" width="90" height="30" as="alternateBounds" />
          </mxGeometry>
        </mxCell>
        <mxCell id="npJGMGMSL7v2pL3vcZeN-21" value="to dict" style="swimlane;html=1;fontStyle=0;childLayout=stackLayout;horizontal=1;startSize=30;fillColor=#e0e0e0;horizontalStack=0;resizeParent=1;resizeLast=0;collapsible=1;marginBottom=0;swimlaneFillColor=#ffffff;align=center;rounded=1;shadow=0;comic=0;labelBackgroundColor=none;strokeWidth=1;fontFamily=Verdana;fontSize=12" vertex="1" parent="1">
          <mxGeometry x="590" y="530" width="250" height="110" as="geometry">
            <mxRectangle x="-130" y="110" width="90" height="30" as="alternateBounds" />
          </mxGeometry>
        </mxCell>
      </root>
    </mxGraphModel>
  </diagram>
</mxfile>
